<svg width="128" height="128" viewBox="0 0 128 128" xmlns="http://www.w3.org/2000/svg">
  <defs>
    <linearGradient id="chocolateGradient" x1="0%" y1="0%" x2="0%" y2="100%">
      <stop offset="0%" style="stop-color:#8D6E63;stop-opacity:1" />
      <stop offset="100%" style="stop-color:#5D4037;stop-opacity:1" />
    </linearGradient>
    <radialGradient id="candyShine" cx="30%" cy="30%" r="70%">
      <stop offset="0%" style="stop-color:#FFF;stop-opacity:0.3" />
      <stop offset="100%" style="stop-color:#FFF;stop-opacity:0" />
    </radialGradient>
  </defs>
  
  <!-- Candy 1 -->
  <ellipse cx="45" cy="50" rx="18" ry="12" fill="url(#chocolateGradient)" transform="rotate(-20 45 50)"/>
  <ellipse cx="45" cy="50" rx="18" ry="12" fill="url(#candyShine)" transform="rotate(-20 45 50)"/>
  <ellipse cx="40" cy="47" rx="4" ry="3" fill="#FFF" opacity="0.6" transform="rotate(-20 40 47)"/>
  
  <!-- Candy 2 -->
  <ellipse cx="75" cy="45" rx="16" ry="10" fill="url(#chocolateGradient)" transform="rotate(15 75 45)"/>
  <ellipse cx="75" cy="45" rx="16" ry="10" fill="url(#candyShine)" transform="rotate(15 75 45)"/>
  <ellipse cx="72" cy="42" rx="3" ry="2" fill="#FFF" opacity="0.6" transform="rotate(15 72 42)"/>
  
  <!-- Candy 3 -->
  <ellipse cx="60" cy="70" rx="20" ry="14" fill="url(#chocolateGradient)" transform="rotate(5 60 70)"/>
  <ellipse cx="60" cy="70" rx="20" ry="14" fill="url(#candyShine)" transform="rotate(5 60 70)"/>
  <ellipse cx="55" cy="66" rx="5" ry="4" fill="#FFF" opacity="0.6" transform="rotate(5 55 66)"/>
  
  <!-- Candy 4 -->
  <ellipse cx="35" cy="75" rx="15" ry="11" fill="url(#chocolateGradient)" transform="rotate(-10 35 75)"/>
  <ellipse cx="35" cy="75" rx="15" ry="11" fill="url(#candyShine)" transform="rotate(-10 35 75)"/>
  <ellipse cx="32" cy="72" rx="3" ry="2" fill="#FFF" opacity="0.6" transform="rotate(-10 32 72)"/>
  
  <!-- Candy 5 -->
  <ellipse cx="85" cy="70" rx="17" ry="13" fill="url(#chocolateGradient)" transform="rotate(25 85 70)"/>
  <ellipse cx="85" cy="70" rx="17" ry="13" fill="url(#candyShine)" transform="rotate(25 85 70)"/>
  <ellipse cx="81" cy="67" rx="4" ry="3" fill="#FFF" opacity="0.6" transform="rotate(25 81 67)"/>
  
  <!-- Decorative swirls on candies -->
  <g stroke="#A1887F" stroke-width="1.5" fill="none" opacity="0.8">
    <path d="M42 47 Q45 45, 48 47 Q45 49, 42 47" transform="rotate(-20 45 47)"/>
    <path d="M72 42 Q75 40, 78 42 Q75 44, 72 42" transform="rotate(15 75 42)"/>
    <path d="M57 67 Q60 65, 63 67 Q60 69, 57 67" transform="rotate(5 60 67)"/>
    <path d="M32 72 Q35 70, 38 72 Q35 74, 32 72" transform="rotate(-10 35 72)"/>
    <path d="M82 67 Q85 65, 88 67 Q85 69, 82 67" transform="rotate(25 85 67)"/>
  </g>
  
  <!-- Heart decorations on some candies -->
  <g fill="#E91E63" opacity="0.8">
    <path d="M45 50 C43 48, 40 48, 40 51 C40 53, 45 56, 45 56 C45 56, 50 53, 50 51 C50 48, 47 48, 45 50 Z" transform="scale(0.3) translate(50, 10)"/>
    <path d="M60 70 C58 68, 55 68, 55 71 C55 73, 60 76, 60 76 C60 76, 65 73, 65 71 C65 68, 62 68, 60 70 Z" transform="scale(0.3) translate(80, 60)"/>
  </g>
  
  <!-- Sparkles -->
  <g fill="#FFD700" opacity="0.7">
    <circle cx="25" cy="35" r="2">
      <animate attributeName="opacity" values="0.7;1;0.7" dur="2s" repeatCount="indefinite"/>
    </circle>
    <circle cx="100" cy="40" r="1.5">
      <animate attributeName="opacity" values="1;0.7;1" dur="2.5s" repeatCount="indefinite"/>
    </circle>
    <circle cx="20" cy="85" r="1">
      <animate attributeName="opacity" values="0.7;1;0.7" dur="1.8s" repeatCount="indefinite"/>
    </circle>
    <circle cx="105" cy="85" r="2">
      <animate attributeName="opacity" values="1;0.7;1" dur="3s" repeatCount="indefinite"/>
    </circle>
  </g>
  
  <!-- Shadow -->
  <ellipse cx="64" cy="110" rx="40" ry="8" fill="#000" opacity="0.2"/>
</svg>