<svg width="128" height="128" viewBox="0 0 128 128" xmlns="http://www.w3.org/2000/svg">
  <defs>
    <linearGradient id="hatGradient" x1="0%" y1="0%" x2="0%" y2="100%">
      <stop offset="0%" style="stop-color:#F44336;stop-opacity:1" />
      <stop offset="100%" style="stop-color:#C62828;stop-opacity:1" />
    </linearGradient>
    <radialGradient id="furGradient" cx="50%" cy="50%" r="50%">
      <stop offset="0%" style="stop-color:#FFF;stop-opacity:1" />
      <stop offset="100%" style="stop-color:#F5F5F5;stop-opacity:1" />
    </radialGradient>
  </defs>
  
  <!-- Hat main body -->
  <path d="M30 90 Q30 60, 45 40 Q55 25, 70 20 Q85 25, 95 40 Q110 60, 98 90" fill="url(#hatGradient)"/>
  
  <!-- Hat tip -->
  <circle cx="85" cy="35" r="15" fill="url(#hatGradient)"/>
  
  <!-- White fur trim -->
  <ellipse cx="64" cy="90" rx="40" ry="8" fill="url(#furGradient)"/>
  
  <!-- White pom-pom -->
  <circle cx="85" cy="35" r="8" fill="url(#furGradient)"/>
  
  <!-- Fur texture on trim -->
  <g fill="#FFF" opacity="0.8">
    <circle cx="35" cy="88" r="3"/>
    <circle cx="45" cy="92" r="2.5"/>
    <circle cx="55" cy="87" r="3"/>
    <circle cx="65" cy="93" r="2"/>
    <circle cx="75" cy="88" r="2.5"/>
    <circle cx="85" cy="91" r="3"/>
    <circle cx="95" cy="89" r="2"/>
  </g>
  
  <!-- Fur texture on pom-pom -->
  <g fill="#FFF" opacity="0.6">
    <circle cx="82" cy="32" r="1.5"/>
    <circle cx="87" cy="30" r="1"/>
    <circle cx="89" cy="37" r="1.5"/>
    <circle cx="81" cy="39" r="1"/>
  </g>
  
  <!-- Hat fold/crease -->
  <path d="M35 85 Q50 75, 65 70 Q80 75, 95 85" stroke="#B71C1C" stroke-width="2" fill="none" opacity="0.5"/>
  
  <!-- Shadow under hat -->
  <ellipse cx="64" cy="105" rx="35" ry="6" fill="#000" opacity="0.2"/>
  
  <!-- Sparkles -->
  <g fill="#FFD700" opacity="0.8">
    <circle cx="25" cy="50" r="2"/>
    <circle cx="110" cy="70" r="1.5"/>
    <circle cx="20" cy="80" r="1"/>
    <circle cx="115" cy="45" r="2"/>
  </g>
  
  <!-- Bell on tip -->
  <circle cx="85" cy="25" r="4" fill="#FFD700"/>
  <circle cx="85" cy="25" r="3" fill="#FFC107"/>
  <circle cx="85" cy="25" r="1" fill="#FF8F00"/>
</svg>