<svg width="128" height="128" viewBox="0 0 128 128" xmlns="http://www.w3.org/2000/svg">
  <defs>
    <radialGradient id="starGradient" cx="50%" cy="50%" r="50%">
      <stop offset="0%" style="stop-color:#FFD700;stop-opacity:1" />
      <stop offset="100%" style="stop-color:#FFA000;stop-opacity:1" />
    </radialGradient>
    <radialGradient id="dustGradient" cx="50%" cy="50%" r="50%">
      <stop offset="0%" style="stop-color:#E1BEE7;stop-opacity:0.8" />
      <stop offset="100%" style="stop-color:#BA68C8;stop-opacity:0.3" />
    </radialGradient>
  </defs>
  
  <!-- Main star -->
  <g transform="translate(64,64)">
    <path d="M0,-20 L6,-6 L20,-6 L10,2 L16,16 L0,8 L-16,16 L-10,2 L-20,-6 L-6,-6 Z" fill="url(#starGradient)"/>
    <path d="M0,-15 L4,-4 L15,-4 L7,1 L12,12 L0,6 L-12,12 L-7,1 L-15,-4 L-4,-4 Z" fill="#FFF" opacity="0.6"/>
  </g>
  
  <!-- Star dust particles -->
  <g fill="url(#dustGradient)">
    <circle cx="30" cy="30" r="3">
      <animate attributeName="opacity" values="0.3;1;0.3" dur="2s" repeatCount="indefinite"/>
    </circle>
    <circle cx="45" cy="25" r="2">
      <animate attributeName="opacity" values="1;0.3;1" dur="2.5s" repeatCount="indefinite"/>
    </circle>
    <circle cx="85" cy="35" r="2.5">
      <animate attributeName="opacity" values="0.5;1;0.5" dur="1.8s" repeatCount="indefinite"/>
    </circle>
    <circle cx="95" cy="50" r="2">
      <animate attributeName="opacity" values="1;0.3;1" dur="3s" repeatCount="indefinite"/>
    </circle>
    <circle cx="100" cy="75" r="3">
      <animate attributeName="opacity" values="0.3;1;0.3" dur="2.2s" repeatCount="indefinite"/>
    </circle>
    <circle cx="85" cy="95" r="2">
      <animate attributeName="opacity" values="1;0.5;1" dur="2.8s" repeatCount="indefinite"/>
    </circle>
    <circle cx="60" cy="100" r="2.5">
      <animate attributeName="opacity" values="0.5;1;0.5" dur="2s" repeatCount="indefinite"/>
    </circle>
    <circle cx="35" cy="90" r="2">
      <animate attributeName="opacity" values="1;0.3;1" dur="2.5s" repeatCount="indefinite"/>
    </circle>
    <circle cx="20" cy="70" r="3">
      <animate attributeName="opacity" values="0.3;1;0.3" dur="1.5s" repeatCount="indefinite"/>
    </circle>
    <circle cx="25" cy="50" r="2">
      <animate attributeName="opacity" values="1;0.5;1" dur="3.2s" repeatCount="indefinite"/>
    </circle>
  </g>
  
  <!-- Small twinkling stars -->
  <g fill="#FFD700">
    <g transform="translate(40,40)">
      <path d="M0,-4 L1,-1 L4,-1 L2,1 L3,4 L0,2 L-3,4 L-2,1 L-4,-1 L-1,-1 Z">
        <animateTransform attributeName="transform" type="rotate" values="0;360" dur="4s" repeatCount="indefinite"/>
      </path>
    </g>
    <g transform="translate(90,40)">
      <path d="M0,-3 L1,-1 L3,-1 L1,1 L2,3 L0,2 L-2,3 L-1,1 L-3,-1 L-1,-1 Z">
        <animateTransform attributeName="transform" type="rotate" values="360;0" dur="3s" repeatCount="indefinite"/>
      </path>
    </g>
    <g transform="translate(90,90)">
      <path d="M0,-4 L1,-1 L4,-1 L2,1 L3,4 L0,2 L-3,4 L-2,1 L-4,-1 L-1,-1 Z">
        <animateTransform attributeName="transform" type="rotate" values="0;360" dur="5s" repeatCount="indefinite"/>
      </path>
    </g>
    <g transform="translate(30,90)">
      <path d="M0,-3 L1,-1 L3,-1 L1,1 L2,3 L0,2 L-2,3 L-1,1 L-3,-1 L-1,-1 Z">
        <animateTransform attributeName="transform" type="rotate" values="360;0" dur="2.5s" repeatCount="indefinite"/>
      </path>
    </g>
  </g>
  
  <!-- Magical aura -->
  <circle cx="64" cy="64" r="35" fill="none" stroke="url(#dustGradient)" stroke-width="2" opacity="0.3">
    <animate attributeName="r" values="35;40;35" dur="3s" repeatCount="indefinite"/>
    <animate attributeName="opacity" values="0.3;0.6;0.3" dur="3s" repeatCount="indefinite"/>
  </circle>
</svg>